<svg version="1.1" id="Layer_1" xmlns="http://www.w3.org/2000/svg" xmlns:xlink="http://www.w3.org/1999/xlink" x="0px" y="0px" width="120px" height="26px" viewBox="0 0 284 26" enable-background="new 0 0 284 26" xml:space="preserve">
<g id="g10" transform="matrix(1.3333333,0,0,-1.3333333,0,377.94667)" stroke="none" fill="#000000" stroke-width="1px">
	<g id="g12" transform="scale(0.1)" stroke="none" fill="#000000" stroke-width="1px">
		<path id="path14" fill="#100f0d" d="M30.359,2673.673h52.115c3.955,0,7.291-1.348,9.987-4.05c2.703-2.695,4.054-6.028,4.054-9.99
			c0-3.955-1.351-7.339-4.054-10.115c-2.695-2.805-6.032-4.197-9.987-4.197H16.318c-3.966,0-7.339,1.392-10.126,4.197
			c-2.791,2.776-4.186,6.16-4.186,10.115v155.801c0,3.948,1.395,7.332,4.186,10.122c2.787,2.791,6.16,4.189,10.126,4.189
			c3.959,0,7.288-1.399,9.99-4.189s4.05-6.174,4.05-10.122V2673.673" stroke="none" stroke-width="1px"></path>
		<path id="path16" fill="#100f0d" d="M274.53,2698.516c0-11.521,3.329-21.694,9.99-30.513c3.417-4.321,3.779-9.177,1.08-14.583
			c-2.699-5.398-6.844-8.101-12.422-8.101c-5.222,0-9.99,3.157-14.315,9.456c-4.318,6.292-7.511,13.447-9.58,21.467
			c-2.069,8.013-3.105,15.432-3.105,22.273c0,17.637,5.131,33.486,15.392,47.52c6.837,9.185,10.261,19.351,10.261,30.505
			c0,10.811-3.424,20.969-10.261,30.52c-3.241,4.49-3.604,9.404-1.084,14.714s6.749,7.969,12.693,7.969
			c7.559,0,13.949-6.028,19.175-18.098c5.215-12.063,7.826-23.752,7.826-35.105c0-17.278-5.222-33.025-15.659-47.249
			C277.859,2720.115,274.53,2709.854,274.53,2698.516" stroke="none" stroke-width="1px"></path>
		<path id="path18" fill="#100f0d" d="M610.371,2825.548c2.791,2.798,6.167,4.197,10.126,4.197s7.295-1.399,9.99-4.189
			c2.703-2.791,4.054-6.174,4.054-10.122v-145.54c0-7.017-2.479-12.869-7.43-17.549c-4.948-4.688-10.931-7.024-17.948-7.024
			c-8.101,0.542-14.495,4.05-19.167,10.532l-96.134,137.161v-133.381c0-3.955-1.395-7.339-4.186-10.115
			c-2.791-2.805-6.167-4.197-10.126-4.197s-7.291,1.392-9.99,4.197c-2.703,2.776-4.05,6.16-4.05,10.115v145.532
			c0,7.031,2.465,12.869,7.397,17.563c4.926,4.673,10.887,7.017,17.886,7.017c8.243-0.549,14.608-4.109,19.087-10.657
			l96.306-137.424v133.733C606.185,2819.366,607.581,2822.742,610.371,2825.548" stroke="none" stroke-width="1px"></path>
		<path id="path20" fill="#100f0d" d="M835.829,2673.673h51.841c3.959,0,7.332-1.399,10.129-4.182
			c2.78-2.798,4.182-6.167,4.182-10.129c0-3.955-1.403-7.288-4.182-9.99c-2.798-2.695-6.171-4.05-10.129-4.05h-66.149
			c-3.962,0-7.291,1.392-9.99,4.197c-2.71,2.776-4.05,6.064-4.05,9.844v78.032v78.04c0,3.948,1.388,7.288,4.178,9.99
			s6.079,4.05,9.862,4.05h66.149c3.959,0,7.332-1.348,10.129-4.05c2.78-2.703,4.182-6.042,4.182-9.99
			c0-3.97-1.403-7.339-4.182-10.129c-2.798-2.791-6.171-4.182-10.129-4.182h-51.841v-49.688h51.841
			c3.959,0,7.332-1.348,10.129-4.043c2.78-2.71,4.182-6.035,4.182-9.998s-1.403-7.332-4.182-10.129
			c-2.798-2.783-6.171-4.182-10.129-4.182h-51.841V2673.673" stroke="none" stroke-width="1px"></path>
		<path id="path22" fill="#100f0d" d="M1212.554,2825.548c2.783,2.798,6.167,4.197,10.122,4.197s7.295-1.399,9.99-4.189
			s4.058-6.174,4.058-10.122v-145.54c0-7.017-2.49-12.869-7.441-17.549c-4.951-4.688-10.928-7.024-17.944-7.024
			c-8.101,0.542-14.487,4.05-19.175,10.532l-96.123,137.161v-133.381c0-3.955-1.406-7.339-4.189-10.115
			c-2.798-2.805-6.167-4.197-10.122-4.197s-7.295,1.392-9.99,4.197c-2.699,2.776-4.054,6.16-4.054,10.115v145.532
			c0,7.031,2.457,12.869,7.394,17.563c4.937,4.673,10.884,7.017,17.886,7.017c8.247-0.549,14.619-4.109,19.087-10.657
			l96.313-137.424v133.733C1208.364,2819.366,1209.756,2822.742,1212.554,2825.548" stroke="none" stroke-width="1px"></path>
		<path id="path24" fill="#100f0d" d="M1438.008,2751.434h51.841c3.955,0,7.339-1.348,10.122-4.043
			c2.798-2.71,4.189-6.035,4.189-9.998s-1.392-7.332-4.189-10.129c-2.783-2.783-6.167-4.182-10.122-4.182h-51.841v-63.721
			c0-3.955-1.392-7.288-4.189-9.99c-2.798-2.695-6.167-4.05-10.122-4.05s-7.295,1.355-9.99,4.05
			c-2.695,2.703-4.043,6.035-4.043,9.99v156.072c0,3.779,1.392,7.061,4.175,9.851c2.783,2.798,6.079,4.189,9.858,4.189h66.152
			c3.955,0,7.339-1.348,10.122-4.05c2.798-2.703,4.189-6.042,4.189-9.99c0-3.97-1.392-7.339-4.189-10.129
			c-2.783-2.791-6.167-4.182-10.122-4.182h-51.841V2751.434" stroke="none" stroke-width="1px"></path>
		<path id="path26" fill="#100f0d" d="M1750.196,2669.351c17.461,0,32.71,6.936,45.776,20.793c13.052,13.857,19.57,29.7,19.57,47.52
			c0,18.003-6.519,33.933-19.57,47.798c-13.066,13.865-28.315,20.793-45.776,20.793s-32.666-6.98-45.63-20.933
			c-12.964-13.945-19.438-29.832-19.438-47.659c0-17.82,6.475-33.662,19.438-47.52S1732.735,2669.351,1750.196,2669.351z
			 M1656.768,2738.206c0,25.02,9.404,47.351,28.213,66.958c18.823,19.622,40.562,29.436,65.215,29.436
			c24.844,0,46.67-9.814,65.479-29.436c18.809-19.607,28.228-42.122,28.228-67.5c0-25.92-9.375-48.508-28.096-67.771
			c-18.721-19.27-40.591-28.887-65.61-28.887s-46.846,9.617-65.479,28.887C1666.084,2689.156,1656.768,2711.927,1656.768,2738.206" stroke="none" stroke-width="1px"></path>
		<path id="path28" fill="#100f0d" d="M2074.043,2740.711l51.519-73.528c1.611-2.329,2.432-5.039,2.432-8.101
			c0-3.772-1.318-7.061-3.926-9.836c-2.607-2.805-5.991-4.189-10.137-4.189c-4.863,0-8.745,1.97-11.631,5.911l-45.469,65.12
			l-45.41-64.951c-2.681-4.065-6.519-6.079-11.499-6.079c-3.94,0-7.251,1.436-9.932,4.314c-2.681,2.886-4.028,6.123-4.028,9.727
			c0,3.054,0.82,5.757,2.432,8.093l51.299,73.396l-46.436,66.475c-1.626,2.336-2.432,5.134-2.432,8.372
			c0,3.604,1.318,6.79,3.926,9.595c2.593,2.776,5.889,4.175,9.844,4.175c5.039,0,8.906-1.978,11.602-5.947l40.693-58.074
			l40.591,58.081c2.842,3.962,6.68,5.94,11.514,5.94c4.102,0,7.456-1.392,10.049-4.16c2.593-2.776,3.896-6.035,3.896-9.8
			c0-3.04-0.806-5.72-2.432-8.042L2074.043,2740.711" stroke="none" stroke-width="1px"></path>
	</g>
</g>
</svg>